<svg width="62" height="69" viewBox="0 0 62 69" fill="none" xmlns="http://www.w3.org/2000/svg">
<path d="M62 5.5C62 8.53757 59.5376 11 56.5 11H36.4492C34.7874 11 33.315 11.8107 32.4058 13.0582C31.3828 14.462 32.8573 16 34.5942 16H37.2393C37.5154 16 37.7393 16.2239 37.7393 16.5C37.7393 16.7761 37.5154 17 37.2393 17H36.4492C34.7874 17 33.315 17.8107 32.4058 19.0582C31.3828 20.462 32.8573 22 34.5942 22H37.2393C37.5154 22 37.7393 22.2239 37.7393 22.5C37.7393 22.7761 37.5154 23 37.2393 23H36.4492C32.1114 23.0001 34.9657 28 39.3035 28H52C57.5228 28 62 32.4772 62 38V59C62 64.5228 57.5228 69 52 69H6.5C2.91015 69 0 66.0899 0 62.5C0 58.9101 2.91015 56 6.5 56H24.4934C28.8312 56 31.6855 51 27.3477 51H26.5576C26.2815 51 26.0576 50.7761 26.0576 50.5C26.0576 50.2239 26.2815 50 26.5576 50H29.2026C30.9396 50 32.4141 48.462 31.3911 47.0582C30.4819 45.8107 29.0095 45 27.3477 45H26.5576C26.2815 45 26.0576 44.7761 26.0576 44.5C26.0576 44.2239 26.2815 44 26.5576 44H29.2026C30.9396 44 32.4141 42.462 31.3911 41.0582C30.4819 39.8107 29.0095 39 27.3477 39H10C4.47715 39 0 34.5228 0 29V10C0 4.47715 4.47715 0 10 0H56.5C59.5376 0 62 2.46243 62 5.5Z" fill="#05B82C"/>
</svg>
