<svg width="99" height="136" viewBox="0 0 99 136" fill="none" xmlns="http://www.w3.org/2000/svg">
<path d="M94 15C96.7614 15 99 17.2386 99 20V44.2627C95.9667 34.2877 86.3705 27 75 27C61.1929 27 50 37.7452 50 51C50 64.2548 61.1929 75 75 75C86.3708 75 95.967 67.7118 99 57.7363V131C99 133.761 96.7614 136 94 136H5C2.23858 136 0 133.761 0 131V101.736C3.03305 111.712 12.6292 119 24 119C37.8071 119 49 108.255 49 95C49 81.7452 37.8071 71 24 71C12.6295 71 3.03335 78.2877 0 88.2627V20C0 17.2386 2.23858 15 5 15H94Z" fill="#57C868"/>
<rect x="8" width="82" height="15" fill="#575555"/>
</svg>
